<?xml version="1.0" encoding="UTF-8" standalone="no"?>
<!-- Created with Inkscape (http://www.inkscape.org/) -->

<svg
   width="21mm"
   height="5mm"
   viewBox="0 0 210 50"
   version="1.1"
   id="svg1"
   sodipodi:docname="nordix.svg"
   inkscape:export-filename="nordix_w.png"
   inkscape:export-xdpi="96"
   inkscape:export-ydpi="96"
   inkscape:version="1.3.2 (091e20e, 2023-11-25, custom)"
   xmlns:inkscape="http://www.inkscape.org/namespaces/inkscape"
   xmlns:sodipodi="http://sodipodi.sourceforge.net/DTD/sodipodi-0.dtd"
   xmlns="http://www.w3.org/2000/svg"
   xmlns:svg="http://www.w3.org/2000/svg">
  <sodipodi:namedview
     id="namedview1"
     pagecolor="#ffffff"
     bordercolor="#000000"
     borderopacity="0.25"
     inkscape:showpageshadow="2"
     inkscape:pageopacity="0.0"
     inkscape:pagecheckerboard="true"
     inkscape:deskcolor="#d1d1d1"
     inkscape:document-units="mm"
     inkscape:zoom="0.70710678"
     inkscape:cx="175.36248"
     inkscape:cy="265.16504"
     inkscape:window-width="1920"
     inkscape:window-height="1009"
     inkscape:window-x="-8"
     inkscape:window-y="-8"
     inkscape:window-maximized="1"
     inkscape:current-layer="layer1" />
  <defs
     id="defs1">
    <rect
       x="31.756399"
       y="343.79755"
       width="497.0567"
       height="200.20338"
       id="rect1" />
  </defs>
  <g
     inkscape:label="Слой 1"
     inkscape:groupmode="layer"
     id="layer1">
    <path
       id="text1"
       style="font-size:96px;font-family:Object;-inkscape-font-specification:Object;white-space:pre;fill:#fbfbfb;fill-opacity:1;stroke-width:0.577025"
       d="m 60.772247,5.6140119 c -2.400416,0 -4.653649,0.3692503 -6.758638,1.1078431 -2.086513,0.720122 -3.868188,1.7267028 -5.345373,3.0192401 -1.440256,1.2556079 -2.677192,2.7143279 -3.711221,4.3761499 -1.994201,3.157478 -2.991065,6.675649 -2.991065,10.553261 0,2.418879 0.424131,4.773301 1.273514,7.062926 0.84938,2.289638 2.049728,4.347967 3.600772,6.17598 1.551045,1.809541 3.536204,3.26826 5.955083,4.376149 2.45582,1.089426 5.133178,1.634154 8.032155,1.634154 2.308091,0 4.487031,-0.350957 6.536615,-1.052621 2.049595,-0.701652 3.831271,-1.670518 5.345373,-2.907666 1.495651,-1.218678 2.778887,-2.640811 3.849848,-4.265709 2.141918,-3.249797 3.213085,-6.887439 3.213085,-10.912771 0.03693,-2.898958 -0.563813,-5.696926 -1.800954,-8.39279 C 76.752774,13.673842 75.017387,11.412023 72.764691,9.6024762 71.250575,8.3468686 69.459188,7.3682852 67.391139,6.6666335 65.323081,5.9649705 63.117278,5.6140119 60.772247,5.6140119 Z M 2.3585525,6.1132719 V 43.421581 H 5.0723757 V 20.46002 L 4.906706,11.320027 31.716983,43.421581 h 1.578932 V 6.1403227 H 30.609137 V 29.572967 L 30.775932,38.490945 3.9093087,6.1132719 Z m 86.0557005,0.027052 v 2.4129133 h 2.68565 v -0.00338 h 13.821567 c 1.51411,0 2.90824,0.2680745 4.18231,0.8035544 1.29254,0.5170091 2.3357,1.2275124 3.12969,2.1322884 1.64337,1.80954 2.46475,3.832413 2.46475,6.066656 0,2.732788 -0.85797,4.911723 -2.5752,6.536616 -1.69875,1.643368 -4.22865,2.464759 -7.58924,2.464759 H 91.534921 v 0.0011 h -3.120668 v 16.866752 h 2.68565 v -14.54172 h 10.608477 l 13.54433,14.54172 h 3.43397 L 104.86625,28.769416 c 4.5054,-0.147711 7.75438,-1.329774 9.74857,-3.545552 1.84648,-2.031118 2.77018,-4.597595 2.77018,-7.699685 0,-2.862035 -1.02488,-5.428512 -3.07447,-7.6996845 -0.9971,-1.126354 -2.31693,-2.0220418 -3.96028,-2.6867752 -1.64337,-0.6647335 -3.45305,-0.9973946 -5.42878,-0.9973946 z m 38.304587,0 v 2.4467212 h 2.68677 v -0.00901 h 9.83198 c 3.26826,0 6.13082,0.6373248 8.58664,1.9113969 2.45581,1.274067 4.37637,2.981445 5.76123,5.123352 1.82802,2.695863 2.74201,5.7619 2.74201,9.196344 0.0369,2.400428 -0.47981,4.735406 -1.55076,7.006579 -1.07096,2.271173 -2.58569,4.182018 -4.54295,5.733067 -1.34793,1.07096 -2.97242,1.911767 -4.87429,2.521106 -1.90187,0.590874 -3.94304,0.885821 -6.12188,0.885821 h -9.83198 V 26.649525 h -2.68677 v 16.772056 h 12.51875 c 2.58506,0 4.98577,-0.350958 7.20155,-1.052621 2.21577,-0.701664 4.09975,-1.680242 5.65079,-2.935843 1.51411,-1.218678 2.79735,-2.640804 3.84984,-4.265709 2.0496,-3.120542 3.07447,-6.683895 3.07447,-10.690748 0,-2.363496 -0.42526,-4.626435 -1.27464,-6.786813 -0.84939,-2.178849 -2.07661,-4.126292 -3.68305,-5.843509 -1.58797,-1.735693 -3.66573,-3.120104 -6.23232,-4.1541337 -2.56661,-1.03403 -5.42917,-1.5518816 -8.58664,-1.5518816 z m 40.9643,0 V 43.421581 h 2.68678 V 6.1403227 Z m 10.16445,0 12.99096,18.1143131 -14.18108,19.166944 h 3.21196 L 192.6102,25.99924 205.35097,43.421581 h 3.21309 L 194.32775,24.254637 207.40099,6.1403227 h -3.01925 L 192.6102,22.343241 180.92205,6.1403227 Z M 60.772247,8.1069412 c 2.45582,0 4.735932,0.4618513 6.840908,1.3850865 2.104989,0.9232413 3.84036,2.1881793 5.206756,3.7946183 1.347933,1.569503 2.391097,3.351179 3.129689,5.345374 0.738593,1.994195 1.107843,4.043951 1.107843,6.148928 0,3.415993 -0.950569,6.601503 -2.852446,9.555862 -1.883411,2.935899 -4.46818,4.994231 -7.754905,6.17598 -1.772623,0.627792 -3.656595,0.942173 -5.650795,0.942173 -1.994201,0 -3.868472,-0.322957 -5.622618,-0.969225 -3.212879,-1.181749 -5.815932,-3.315508 -7.810132,-6.399121 -1.809554,-2.880512 -2.723532,-6.000299 -2.741997,-9.360889 0,-3.360586 0.895687,-6.453501 2.686775,-9.278618 1.92034,-3.065148 4.505109,-5.189208 7.754905,-6.3709446 1.791088,-0.6462686 3.693362,-0.9692242 5.706017,-0.9692242 z"
       inkscape:label="text1" />
  </g>
</svg>
